<svg width="60" height="60" viewBox="0 0 60 60" fill="none" xmlns="http://www.w3.org/2000/svg">
<circle cx="30" cy="30" r="30" fill="#1ABC9C"/>
<path d="M9.7793 27.0879C9.52539 27.0879 9.39844 27.0156 9.39844 26.8711C9.39844 26.7578 9.46875 26.7012 9.60938 26.7012L9.89648 26.7305C10.1309 26.7305 10.2891 26.5996 10.3711 26.3379C10.4375 26.1152 10.4707 25.7168 10.4707 25.1426V21.0059C10.4707 20.4316 10.4434 20.0566 10.3887 19.8809C10.334 19.7012 10.2676 19.5801 10.1895 19.5176C10.1152 19.4512 10.0176 19.418 9.89648 19.418L9.60938 19.4414C9.46875 19.4414 9.39844 19.3848 9.39844 19.2715C9.39844 19.127 9.50195 19.0547 9.70898 19.0547C9.91992 19.0547 10.0918 19.0605 10.2246 19.0723C10.3574 19.0801 10.4922 19.0898 10.6289 19.1016C10.9883 19.1328 11.2598 19.1484 11.4434 19.1484C11.627 19.1484 11.8242 19.1445 12.0352 19.1367C12.2461 19.125 12.4883 19.1133 12.7617 19.1016C13.4922 19.0703 14 19.0547 14.2852 19.0547C14.5703 19.0547 14.7285 19.0723 14.7598 19.1074C14.7949 19.1426 14.8125 19.1914 14.8125 19.2539C14.8125 19.3125 14.8105 19.3691 14.8066 19.4238C14.8066 19.4785 14.8047 19.5391 14.8008 19.6055C14.7969 19.6953 14.7852 19.8301 14.7656 20.0098C14.7461 20.1855 14.7227 20.3047 14.6953 20.3672C14.668 20.4258 14.6289 20.4551 14.5781 20.4551C14.5273 20.4551 14.4922 20.4434 14.4727 20.4199C14.4531 20.3926 14.4258 20.334 14.3906 20.2441C14.3594 20.1504 14.3008 20.0625 14.2148 19.9805C14.1328 19.8945 14 19.8242 13.8164 19.7695C13.4688 19.6641 12.8203 19.6113 11.8711 19.6113H11.584C11.4902 19.6113 11.4297 19.625 11.4023 19.6523C11.3789 19.6797 11.3672 19.7422 11.3672 19.8398V22.4355C11.7383 22.4785 12.0703 22.5 12.3633 22.5C12.6562 22.5 12.8672 22.498 12.9961 22.4941C13.1289 22.4902 13.2383 22.4805 13.3242 22.4648C13.4766 22.4336 13.5859 22.3633 13.6523 22.2539C13.7852 22.0469 13.8926 21.9434 13.9746 21.9434C14.0801 21.9434 14.1328 21.998 14.1328 22.1074L13.9277 22.9395L13.9512 23.3848C13.9512 23.666 13.8848 23.8066 13.752 23.8066C13.6387 23.8066 13.582 23.7324 13.582 23.584C13.582 23.4316 13.5723 23.3184 13.5527 23.2441C13.5371 23.1699 13.4883 23.1133 13.4062 23.0742C13.2812 23.0078 12.9355 22.9746 12.3691 22.9746C12.3574 22.9746 12.0234 22.9902 11.3672 23.0215V25.1426C11.3672 25.7324 11.3926 26.1133 11.4434 26.2852C11.498 26.4531 11.5625 26.5703 11.6367 26.6367C11.7148 26.6992 11.8164 26.7305 11.9414 26.7305L12.2578 26.7012C12.4062 26.7012 12.4805 26.7578 12.4805 26.8711C12.4805 27.0156 12.3516 27.0879 12.0938 27.0879L10.9922 27C10.707 27 10.4648 27.0137 10.2656 27.041C10.0664 27.0723 9.9043 27.0879 9.7793 27.0879ZM21.0703 26.2148C21.1836 26.2148 21.2402 26.2676 21.2402 26.373C21.2402 26.4746 21.127 26.5723 20.9004 26.666C20.6738 26.7598 20.5156 26.8457 20.4258 26.9238C20.3359 26.998 20.2695 27.0527 20.2266 27.0879C20.1836 27.127 20.1328 27.1465 20.0742 27.1465C19.957 27.1465 19.8594 27.0977 19.7812 27C19.7031 26.9023 19.5977 26.6934 19.4648 26.373C19.2422 26.627 18.9707 26.8203 18.6504 26.9531C18.334 27.082 18.0195 27.1465 17.707 27.1465C17.1172 27.1465 16.6602 26.9961 16.3359 26.6953C16.0117 26.3945 15.8496 25.9824 15.8496 25.459C15.8496 24.9355 16.0938 24.5117 16.582 24.1875C17.0742 23.8594 17.7012 23.6953 18.4629 23.6953C18.6895 23.6953 18.9883 23.7344 19.3594 23.8125V23.3555C19.3594 22.3516 18.9355 21.8496 18.0879 21.8496C17.6387 21.8496 17.3086 22.0566 17.0977 22.4707C16.9141 22.8418 16.7344 23.0273 16.5586 23.0273C16.4297 23.0273 16.3164 22.9902 16.2188 22.916C16.125 22.8418 16.0781 22.748 16.0781 22.6348C16.0781 22.5215 16.1367 22.3965 16.2539 22.2598C16.3711 22.1191 16.5273 21.9922 16.7227 21.8789C17.1836 21.6094 17.6895 21.4746 18.2402 21.4746C19.2168 21.4746 19.8477 21.793 20.1328 22.4297C20.2383 22.6562 20.291 22.9336 20.291 23.2617V25.5996C20.291 25.9004 20.3203 26.0938 20.3789 26.1797C20.4375 26.2656 20.5195 26.3086 20.625 26.3086C20.7305 26.3086 20.8164 26.293 20.8828 26.2617C20.9492 26.2305 21.0117 26.2148 21.0703 26.2148ZM19.3594 24.3574C19.0781 24.1973 18.7227 24.1172 18.293 24.1172C17.8633 24.1172 17.5176 24.2246 17.2559 24.4395C16.998 24.6543 16.8691 24.9434 16.8691 25.3066C16.8691 25.666 16.9688 25.9668 17.168 26.209C17.3672 26.4473 17.623 26.5664 17.9355 26.5664C18.6035 26.5664 19.084 26.3477 19.377 25.9102C19.3652 25.8008 19.3594 25.6797 19.3594 25.5469V24.3574ZM22.002 27.0879C21.7402 27.0879 21.6094 27.0156 21.6094 26.8711C21.6094 26.7578 21.6816 26.7012 21.8262 26.7012L22.1191 26.7305C22.209 26.7305 22.2832 26.7148 22.3418 26.6836C22.4004 26.6484 22.4453 26.5762 22.4766 26.4668C22.5391 26.2676 22.5703 25.8262 22.5703 25.1426V23.3906C22.5703 22.9922 22.5449 22.7441 22.4941 22.6465C22.4473 22.5449 22.3887 22.4766 22.3184 22.4414C22.252 22.4023 22.1406 22.3711 21.9844 22.3477C21.832 22.3242 21.7559 22.2637 21.7559 22.166C21.7559 22.0762 21.8555 22.0117 22.0547 21.9727C22.5195 21.875 22.8398 21.7773 23.0156 21.6797C23.2539 21.543 23.416 21.4746 23.502 21.4746C23.5918 21.4746 23.6367 21.5195 23.6367 21.6094C23.6367 21.6523 23.627 21.6973 23.6074 21.7441C23.5918 21.791 23.5742 21.8477 23.5547 21.9141C23.5234 22.0469 23.5 22.2969 23.4844 22.6641C23.8242 22.0938 24.2344 21.7383 24.7148 21.5977C24.8555 21.5547 25.0117 21.5332 25.1836 21.5332C25.3594 21.5332 25.5137 21.5957 25.6465 21.7207C25.7832 21.8457 25.8516 21.9785 25.8516 22.1191C25.8516 22.2598 25.8359 22.3633 25.8047 22.4297C25.7734 22.4961 25.7344 22.5527 25.6875 22.5996C25.5859 22.7012 25.4941 22.752 25.4121 22.752C25.334 22.752 25.2734 22.7324 25.2305 22.6934C25.1875 22.6504 25.1387 22.5742 25.084 22.4648C24.9863 22.2695 24.877 22.1719 24.7559 22.1719C24.6348 22.1719 24.5195 22.1992 24.4102 22.2539C24.3008 22.3047 24.1914 22.3828 24.082 22.4883C23.8438 22.7109 23.6426 23.0137 23.4785 23.3965V25.1426C23.4785 25.8848 23.498 26.3223 23.5371 26.4551C23.5801 26.584 23.6309 26.6621 23.6895 26.6895C23.752 26.7129 23.8359 26.7246 23.9414 26.7246L24.4629 26.6777C24.541 26.6777 24.6035 26.6973 24.6504 26.7363C24.6973 26.7715 24.7207 26.8164 24.7207 26.8711C24.7207 27.0156 24.5781 27.0879 24.293 27.0879L23.0566 27C22.8574 27 22.668 27.0137 22.4883 27.041C22.3125 27.0723 22.1504 27.0879 22.002 27.0879ZM26.6953 27.0879C26.4375 27.0879 26.3086 27.0156 26.3086 26.8711C26.3086 26.7578 26.3809 26.7012 26.5254 26.7012L26.8184 26.7305C26.9082 26.7305 26.9824 26.7148 27.041 26.6836C27.0996 26.6484 27.1445 26.5762 27.1758 26.4668C27.2383 26.2676 27.2695 25.8262 27.2695 25.1426V23.3906C27.2695 23 27.2441 22.7539 27.1934 22.6523C27.1426 22.5469 27.082 22.4766 27.0117 22.4414C26.9453 22.4023 26.8359 22.3711 26.6836 22.3477C26.5312 22.3242 26.4551 22.2637 26.4551 22.166C26.4551 22.0762 26.5547 22.0117 26.7539 21.9727C27.2188 21.875 27.5391 21.7773 27.7148 21.6797C27.9531 21.543 28.1152 21.4746 28.2012 21.4746C28.291 21.4746 28.3359 21.5195 28.3359 21.6094C28.3359 21.6523 28.3262 21.6973 28.3066 21.7441C28.291 21.791 28.2734 21.8477 28.2539 21.9141C28.2266 22.0195 28.2051 22.2227 28.1895 22.5234C28.5371 22.0195 28.9727 21.6934 29.4961 21.5449C29.6641 21.498 29.832 21.4746 30 21.4746C30.9141 21.4746 31.4785 21.8809 31.6934 22.6934C32.041 22.1152 32.5 21.7383 33.0703 21.5625C33.25 21.5039 33.4316 21.4746 33.6152 21.4746C34.1855 21.4746 34.627 21.6406 34.9395 21.9727C35.252 22.3047 35.4082 22.8223 35.4082 23.5254V25.1426C35.4082 25.8262 35.4316 26.2461 35.4785 26.4023C35.5254 26.5547 35.5781 26.6484 35.6367 26.6836C35.6953 26.7148 35.7695 26.7305 35.8594 26.7305L36.1523 26.7012C36.2969 26.7012 36.3691 26.7578 36.3691 26.8711C36.3691 27.0156 36.2383 27.0879 35.9766 27.0879C35.8281 27.0879 35.6699 27.0723 35.502 27.041C35.334 27.0137 35.1523 27 34.957 27C34.7656 27 34.582 27.0137 34.4062 27.041C34.2344 27.0723 34.0742 27.0879 33.9258 27.0879C33.6641 27.0879 33.5332 27.0156 33.5332 26.8711C33.5332 26.7578 33.6055 26.7012 33.75 26.7012L34.043 26.7305C34.1328 26.7305 34.207 26.7148 34.2656 26.6836C34.3242 26.6484 34.3711 26.5762 34.4062 26.4668C34.4688 26.2715 34.5 25.8301 34.5 25.1426V23.8066C34.5 22.9512 34.2695 22.4297 33.8086 22.2422C33.6602 22.1836 33.5 22.1543 33.3281 22.1543C33.1602 22.1543 33.002 22.1855 32.8535 22.248C32.7051 22.3066 32.5664 22.3945 32.4375 22.5117C32.1523 22.7656 31.9375 23.1016 31.793 23.5195V25.1426C31.793 25.8262 31.8164 26.2461 31.8633 26.4023C31.9102 26.5547 31.9629 26.6484 32.0215 26.6836C32.0801 26.7148 32.1543 26.7305 32.2441 26.7305L32.5371 26.7012C32.6816 26.7012 32.7539 26.7578 32.7539 26.8711C32.7539 27.0156 32.623 27.0879 32.3613 27.0879C32.2129 27.0879 32.0547 27.0723 31.8867 27.041C31.7188 27.0137 31.5371 27 31.3418 27C31.1504 27 30.9668 27.0137 30.791 27.041C30.6191 27.0723 30.459 27.0879 30.3105 27.0879C30.0488 27.0879 29.918 27.0156 29.918 26.8711C29.918 26.7578 29.9902 26.7012 30.1348 26.7012L30.4277 26.7305C30.5176 26.7305 30.5918 26.7148 30.6504 26.6836C30.709 26.6484 30.7559 26.5762 30.791 26.4668C30.8535 26.2715 30.8848 25.8301 30.8848 25.1426V23.8066C30.8848 22.9512 30.6562 22.4297 30.1992 22.2422C30.0469 22.1836 29.8848 22.1543 29.7129 22.1543C29.5449 22.1543 29.3867 22.1855 29.2383 22.248C29.0898 22.3066 28.9492 22.3945 28.8164 22.5117C28.5352 22.7656 28.3223 23.1016 28.1777 23.5195V25.1426C28.1777 25.8262 28.2012 26.2461 28.248 26.4023C28.2949 26.5547 28.3477 26.6484 28.4062 26.6836C28.4648 26.7148 28.5391 26.7305 28.6289 26.7305L28.9219 26.7012C29.0664 26.7012 29.1387 26.7578 29.1387 26.8711C29.1387 27.0156 29.0098 27.0879 28.752 27.0879C28.6035 27.0879 28.4492 27.0723 28.2891 27.041C28.1289 27.0137 27.9453 27 27.7383 27C27.5312 27 27.3418 27.0137 27.1699 27.041C27.002 27.0723 26.8438 27.0879 26.6953 27.0879ZM17.0156 34.8418C17.0156 34.9941 16.9629 35.0703 16.8574 35.0703C16.7637 35.0703 16.6855 34.9766 16.623 34.7891C16.5645 34.5977 16.4512 34.418 16.2832 34.25C16.1152 34.082 15.9141 33.9414 15.6797 33.8281C15.1914 33.5898 14.666 33.4707 14.1035 33.4707C13.5449 33.4707 13.0605 33.5469 12.6504 33.6992C12.2441 33.8477 11.8945 34.0625 11.6016 34.3438C10.9922 34.9414 10.6875 35.748 10.6875 36.7637C10.6875 37.8887 11.0312 38.8164 11.7188 39.5469C12.4023 40.2734 13.2773 40.6367 14.3438 40.6367C15.5312 40.6367 16.4492 40.0918 17.0977 39.002C17.1406 38.9316 17.1855 38.8926 17.2324 38.8848C17.2754 38.8848 17.3184 38.9316 17.3613 39.0254C17.4043 39.1191 17.4258 39.2246 17.4258 39.3418C17.4258 39.5371 17.2598 39.791 16.9277 40.1035C16.5957 40.416 16.1914 40.668 15.7148 40.8594C15.2422 41.0508 14.6895 41.1465 14.0566 41.1465C13.4277 41.1465 12.8301 41.0449 12.2637 40.8418C11.7012 40.6348 11.2227 40.3535 10.8281 39.998C10 39.2559 9.58594 38.3281 9.58594 37.2148C9.58594 35.957 10.0039 34.9414 10.8398 34.168C11.6758 33.3906 12.7754 33.002 14.1387 33.002C15.123 33.002 15.9375 33.1328 16.582 33.3945C16.707 33.4492 16.7891 33.502 16.8281 33.5527C16.9062 33.6621 16.9512 33.8262 16.9629 34.0449C16.9785 34.2598 16.9883 34.4082 16.9922 34.4902C17.0078 34.6816 17.0156 34.7988 17.0156 34.8418ZM18.4043 41.0879C18.1426 41.0879 18.0117 41.0156 18.0117 40.8711C18.0117 40.7578 18.084 40.7012 18.2285 40.7012L18.5215 40.7305C18.6113 40.7305 18.6855 40.7148 18.7441 40.6836C18.8027 40.6484 18.8477 40.5762 18.8789 40.4668C18.9414 40.2676 18.9727 39.8262 18.9727 39.1426V37.3906C18.9727 36.9922 18.9473 36.7441 18.8965 36.6465C18.8496 36.5449 18.791 36.4766 18.7207 36.4414C18.6543 36.4023 18.543 36.3711 18.3867 36.3477C18.2344 36.3242 18.1582 36.2637 18.1582 36.166C18.1582 36.0762 18.2578 36.0117 18.457 35.9727C18.9219 35.875 19.2422 35.7773 19.418 35.6797C19.6562 35.543 19.8184 35.4746 19.9043 35.4746C19.9941 35.4746 20.0391 35.5195 20.0391 35.6094C20.0391 35.6523 20.0293 35.6973 20.0098 35.7441C19.9941 35.791 19.9766 35.8477 19.957 35.9141C19.9258 36.0469 19.9023 36.2969 19.8867 36.6641C20.2266 36.0938 20.6367 35.7383 21.1172 35.5977C21.2578 35.5547 21.4141 35.5332 21.5859 35.5332C21.7617 35.5332 21.916 35.5957 22.0488 35.7207C22.1855 35.8457 22.2539 35.9785 22.2539 36.1191C22.2539 36.2598 22.2383 36.3633 22.207 36.4297C22.1758 36.4961 22.1367 36.5527 22.0898 36.5996C21.9883 36.7012 21.8965 36.752 21.8145 36.752C21.7363 36.752 21.6758 36.7324 21.6328 36.6934C21.5898 36.6504 21.541 36.5742 21.4863 36.4648C21.3887 36.2695 21.2793 36.1719 21.1582 36.1719C21.0371 36.1719 20.9219 36.1992 20.8125 36.2539C20.7031 36.3047 20.5938 36.3828 20.4844 36.4883C20.2461 36.7109 20.0449 37.0137 19.8809 37.3965V39.1426C19.8809 39.8848 19.9004 40.3223 19.9395 40.4551C19.9824 40.584 20.0332 40.6621 20.0918 40.6895C20.1543 40.7129 20.2383 40.7246 20.3438 40.7246L20.8652 40.6777C20.9434 40.6777 21.0059 40.6973 21.0527 40.7363C21.0996 40.7715 21.123 40.8164 21.123 40.8711C21.123 41.0156 20.9805 41.0879 20.6953 41.0879L19.459 41C19.2598 41 19.0703 41.0137 18.8906 41.041C18.7148 41.0723 18.5527 41.0879 18.4043 41.0879ZM22.8164 38.3984C22.8164 38.0195 22.8848 37.6523 23.0215 37.2969C23.1582 36.9414 23.3516 36.6289 23.6016 36.3594C24.1484 35.7695 24.8301 35.4746 25.6465 35.4746C26.5527 35.4746 27.25 35.7461 27.7383 36.2891C28.1797 36.7812 28.4004 37.4199 28.4004 38.2051C28.4004 38.998 28.1367 39.6836 27.6094 40.2617C27.0703 40.8516 26.3906 41.1465 25.5703 41.1465C24.6641 41.1465 23.9688 40.875 23.4844 40.332C23.0391 39.8398 22.8164 39.1953 22.8164 38.3984ZM23.8066 38.1523C23.8066 38.5352 23.8594 38.8926 23.9648 39.2246C24.0703 39.5566 24.2148 39.832 24.3984 40.0508C24.7617 40.4961 25.2207 40.7188 25.7754 40.7188C26.2676 40.7188 26.668 40.5234 26.9766 40.1328C27.2969 39.7266 27.457 39.2031 27.457 38.5625C27.457 37.7148 27.2617 37.0508 26.8711 36.5703C26.5039 36.1289 26.043 35.9082 25.4883 35.9082C24.9961 35.9082 24.5957 36.1035 24.2871 36.4941C23.9668 36.9004 23.8066 37.4531 23.8066 38.1523ZM37.7109 35.5273C37.8711 35.5273 37.9512 35.5762 37.9512 35.6738C37.9512 35.7559 37.877 35.8242 37.7285 35.8789C37.5801 35.9297 37.4707 35.9785 37.4004 36.0254C37.334 36.0723 37.2695 36.1406 37.207 36.2305C37.1055 36.375 36.9629 36.668 36.7793 37.1094L35.1211 40.9766C35.0742 41.0898 35.0234 41.1465 34.9688 41.1465C34.8867 41.1465 34.8223 41.0898 34.7754 40.9766L33.1875 37.291L31.6641 40.9766C31.6172 41.0898 31.5664 41.1465 31.5117 41.1465C31.4297 41.1465 31.3652 41.0898 31.3184 40.9766L29.5254 36.6523C29.4238 36.3867 29.3418 36.2168 29.2793 36.1426C29.1738 36.0137 29.0352 35.9297 28.8633 35.8906C28.6953 35.8477 28.6113 35.7734 28.6113 35.668C28.6113 35.6328 28.6328 35.6016 28.6758 35.5742C28.7148 35.543 28.7734 35.5273 28.8516 35.5273L29.7598 35.5918C29.9941 35.5918 30.168 35.584 30.2812 35.5684C30.4805 35.541 30.6445 35.5273 30.7734 35.5273C31.0391 35.5273 31.1719 35.584 31.1719 35.6973C31.1719 35.8145 31.0156 35.8809 30.7031 35.8965C30.5117 35.9043 30.4082 35.957 30.3926 36.0547C30.3887 36.082 30.3867 36.1152 30.3867 36.1543C30.3867 36.2441 30.4277 36.4004 30.5098 36.623L31.7285 39.5586L32.9062 36.6465L32.7773 36.3418C32.6836 36.123 32.5859 35.9863 32.4844 35.9316C32.4453 35.9121 32.4004 35.8926 32.3496 35.873C32.2012 35.8184 32.127 35.748 32.127 35.6621C32.127 35.5723 32.2148 35.5273 32.3906 35.5273L33.1406 35.5918C33.3828 35.5918 33.5645 35.584 33.6855 35.5684C33.8965 35.541 34.1016 35.5273 34.3008 35.5273C34.5039 35.5273 34.6055 35.584 34.6055 35.6973C34.6055 35.8145 34.4492 35.8809 34.1367 35.8965C33.8945 35.9082 33.7734 35.9883 33.7734 36.1367C33.7734 36.2891 33.8516 36.5391 34.0078 36.8867L35.2031 39.6289L36.0176 37.6016C36.2754 36.9531 36.4121 36.5645 36.4277 36.4355C36.4434 36.3027 36.4512 36.207 36.4512 36.1484C36.4512 36 36.3496 35.918 36.1465 35.9023C35.9434 35.8828 35.8066 35.8594 35.7363 35.832C35.6699 35.8047 35.6367 35.7598 35.6367 35.6973C35.6367 35.584 35.7695 35.5273 36.0352 35.5273L37.0312 35.5859L37.7109 35.5273ZM42.2637 40.4785C41.8457 40.9238 41.2969 41.1465 40.6172 41.1465C39.8203 41.1465 39.1914 40.8711 38.7305 40.3203C38.3047 39.8047 38.0918 39.1484 38.0918 38.3516C38.0918 37.5547 38.3535 36.877 38.877 36.3184C39.4043 35.7559 40.0605 35.4746 40.8457 35.4746C41.3613 35.4746 41.793 35.5723 42.1406 35.7676V34.5312C42.1406 34.1641 42.1113 33.9258 42.0527 33.8164C41.9941 33.7031 41.9316 33.627 41.8652 33.5879C41.7988 33.5488 41.6914 33.5176 41.543 33.4941C41.3984 33.4707 41.3262 33.4102 41.3262 33.3125C41.3262 33.2227 41.4258 33.1582 41.625 33.1191C42.0938 33.0215 42.416 32.9219 42.5918 32.8203C42.8301 32.6875 42.9902 32.6211 43.0723 32.6211C43.1621 32.6211 43.207 32.666 43.207 32.7559C43.207 32.7988 43.1992 32.8438 43.1836 32.8906C43.1016 33.1016 43.0586 33.3691 43.0547 33.6934C43.0508 34.0176 43.0488 34.2812 43.0488 34.4844V39.2832C43.0488 39.7129 43.0742 39.9902 43.125 40.1152C43.1758 40.2402 43.2266 40.3223 43.2773 40.3613C43.3281 40.3965 43.3887 40.4141 43.459 40.4141L43.8105 40.3379C43.9238 40.3379 43.9805 40.3887 43.9805 40.4902C43.9805 40.5488 43.9551 40.5977 43.9043 40.6367C43.8574 40.6758 43.7754 40.7207 43.6582 40.7715C43.541 40.8223 43.4434 40.875 43.3652 40.9297C43.2871 40.9844 43.2188 41.0352 43.1602 41.082C43.0273 41.1953 42.9238 41.252 42.8496 41.252C42.5957 41.252 42.4004 40.9941 42.2637 40.4785ZM42.1406 36.6406C41.7852 36.1562 41.293 35.9141 40.6641 35.9141C40.1914 35.9141 39.8125 36.0957 39.5273 36.459C39.2227 36.8418 39.0703 37.3652 39.0703 38.0293C39.0703 38.8027 39.2676 39.4219 39.6621 39.8867C40.0293 40.3242 40.4688 40.543 40.9805 40.543C41.5 40.543 41.8965 40.3594 42.1699 39.9922C42.1504 39.8477 42.1406 39.6797 42.1406 39.4883V36.6406ZM49.7051 35.5215C49.8652 35.5215 49.9453 35.5703 49.9453 35.668C49.9453 35.75 49.8711 35.8184 49.7227 35.873C49.5781 35.9238 49.4668 35.9727 49.3887 36.0195C49.3105 36.0625 49.2383 36.125 49.1719 36.207C49.0352 36.375 48.8906 36.666 48.7383 37.0801L47.8594 39.4707C47.1055 41.5254 46.5605 42.7617 46.2246 43.1797C45.8926 43.6016 45.498 43.8125 45.041 43.8125C44.7246 43.8125 44.4961 43.7695 44.3555 43.6836C44.1211 43.5352 44.0039 43.3828 44.0039 43.2266C44.0039 43.1172 44.043 43.0273 44.1211 42.957C44.25 42.8359 44.3672 42.7754 44.4727 42.7754C44.582 42.7754 44.6777 42.793 44.7598 42.8281C44.8418 42.8672 44.9199 42.9082 44.9941 42.9512C45.0723 42.998 45.1426 43.0391 45.2051 43.0742C45.2676 43.1133 45.3242 43.1328 45.375 43.1328C45.4258 43.1328 45.4785 43.1289 45.5332 43.1211C45.5918 43.1133 45.6543 43.0859 45.7207 43.0391C45.7871 42.9961 45.8594 42.9277 45.9375 42.834C46.0156 42.7402 46.1016 42.6094 46.1953 42.4414C46.4023 42.0625 46.6348 41.5273 46.8926 40.8359C46.7246 40.7109 46.459 40.2598 46.0957 39.4824L44.8008 36.623C44.6836 36.3691 44.5938 36.207 44.5312 36.1367C44.4297 36.0078 44.293 35.9238 44.1211 35.8848C43.9531 35.8418 43.8691 35.7676 43.8691 35.6621C43.8691 35.627 43.8906 35.5957 43.9336 35.5684C43.9727 35.5371 44.0312 35.5215 44.1094 35.5215L45.0176 35.5859C45.2559 35.5859 45.4355 35.5781 45.5566 35.5625C45.7637 35.5352 45.9336 35.5215 46.0664 35.5215C46.332 35.5215 46.4648 35.5781 46.4648 35.6914C46.4648 35.8086 46.3086 35.875 45.9961 35.8906C45.7969 35.9023 45.6836 35.9551 45.6562 36.0488C45.6484 36.0762 45.6445 36.1055 45.6445 36.1367C45.6445 36.1875 45.7031 36.3398 45.8203 36.5938L47.25 39.8223C47.2539 39.8223 47.2559 39.8184 47.2559 39.8105C47.2559 39.8027 47.2578 39.7949 47.2617 39.7871L48.2578 36.8516C48.3164 36.6758 48.3652 36.5312 48.4043 36.418C48.4473 36.3008 48.4688 36.2031 48.4688 36.125C48.4688 36.043 48.4414 35.9863 48.3867 35.9551C48.332 35.9238 48.2266 35.9023 48.0703 35.8906C47.7773 35.8633 47.6309 35.7949 47.6309 35.6855C47.6309 35.5762 47.7637 35.5215 48.0293 35.5215L49.0254 35.5801L49.7051 35.5215Z" fill="white"/>
<path d="M41.6767 15.4977C40.3397 14.0423 37.6137 13.764 35.6793 13.6815C35.479 13.6729 35.3095 13.8286 35.3009 14.0289C35.2185 15.9633 35.2631 18.703 36.6001 20.1592C37.1644 20.7737 38.0568 21.0757 38.9525 21.1139C39.9259 21.1554 40.9039 20.8851 41.4692 20.366C42.5537 19.3702 42.8554 16.7805 41.6767 15.4977ZM40.9779 19.8317C40.1681 20.5745 38.0059 20.6154 37.1359 19.6679C36.0567 18.4926 35.9591 16.1942 36.0134 14.4251C37.7807 14.5215 40.0625 14.8144 41.1416 15.9897C42.0117 16.9372 41.7869 19.0888 40.9779 19.8317Z" fill="white"/>
<path d="M50.878 15.768C48.9436 15.6856 46.2038 15.7302 44.7477 17.0672C43.4642 18.245 43.5444 20.851 44.5402 21.9355C45.0593 22.5002 46.01 22.8526 46.9834 22.8941C47.8791 22.9323 48.7933 22.708 49.4092 22.1439C50.8646 20.8068 51.1429 18.0809 51.2254 16.1464C51.234 15.9461 51.0783 15.7766 50.878 15.768ZM48.9165 21.608C47.969 22.478 45.8174 22.2532 45.0745 21.4442C44.3317 20.6352 44.2908 18.4723 45.2383 17.6022C46.4137 16.523 48.712 16.4254 50.4811 16.4797C50.3847 18.2477 50.0918 20.5295 48.9165 21.608Z" fill="white"/>
<path d="M48.1237 18.7976C48.0458 18.6118 47.8031 18.5389 47.6188 18.6154C44.7793 19.8055 43.3145 22.0293 42.5932 24.3487C42.0371 19.3278 39.8787 17.7124 38.9633 17.0269C38.8491 16.9414 38.7602 16.8787 38.7115 16.8264C38.576 16.6788 38.3459 16.669 38.1983 16.8045C38.0507 16.94 38.0409 17.1701 38.1764 17.3177C38.2453 17.3919 38.3656 17.4865 38.5284 17.6083C39.56 18.3802 42.3005 20.4321 41.9724 28.1298C41.9638 28.3301 42.1195 28.4997 42.3199 28.5082C42.5202 28.5167 42.6897 28.3611 42.6982 28.1615C42.8308 25.0512 43.8411 20.9864 47.9 19.2862L47.96 19.2604C48.1444 19.1825 48.2016 18.9827 48.1237 18.7976Z" fill="white"/>
</svg>
